<svg width="102" height="15" viewBox="0 0 102 15" fill="none" xmlns="http://www.w3.org/2000/svg">
<path d="M1 6.36401C0.447715 6.36401 0 6.81173 0 7.36401C0 7.9163 0.447715 8.36401 1 8.36401V7.36401V6.36401ZM101.707 8.07112C102.098 7.6806 102.098 7.04743 101.707 6.65691L95.3431 0.292946C94.9526 -0.0975785 94.3195 -0.0975785 93.9289 0.292946C93.5384 0.68347 93.5384 1.31664 93.9289 1.70716L99.5858 7.36401L93.9289 13.0209C93.5384 13.4114 93.5384 14.0446 93.9289 14.4351C94.3195 14.8256 94.9526 14.8256 95.3431 14.4351L101.707 8.07112ZM1 7.36401V8.36401H101V7.36401V6.36401H1V7.36401Z" fill="#FF8E00"/>
</svg>
